<svg width="16" height="16" viewBox="0 0 16 16" fill="none" xmlns="http://www.w3.org/2000/svg">
<path d="M8 2.75V4.5" stroke="black" stroke-width="1.2" stroke-linecap="round"/>
<path d="M8 2.75C8.41421 2.75 8.75 2.41421 8.75 2C8.75 1.58579 8.41421 1.25 8 1.25C7.58579 1.25 7.25 1.58579 7.25 2C7.25 2.41421 7.58579 2.75 8 2.75Z" fill="black"/>
<path d="M4.75 4.5H11.25C12.2165 4.5 13 5.2835 13 6.25V11.25C13 12.2165 12.2165 13 11.25 13H4.75C3.7835 13 3 12.2165 3 11.25V6.25C3 5.2835 3.7835 4.5 4.75 4.5Z" stroke="black" stroke-width="1.2" stroke-linejoin="round"/>
<path d="M1.5 7.25V10.25" stroke="black" stroke-width="1.2" stroke-linecap="round"/>
<path d="M14.5 7.25V10.25" stroke="black" stroke-width="1.2" stroke-linecap="round"/>
<path d="M6.25 8.5C6.66421 8.5 7 8.16421 7 7.75C7 7.33579 6.66421 7 6.25 7C5.83579 7 5.5 7.33579 5.5 7.75C5.5 8.16421 5.83579 8.5 6.25 8.5Z" fill="black"/>
<path d="M9.75 8.5C10.1642 8.5 10.5 8.16421 10.5 7.75C10.5 7.33579 10.1642 7 9.75 7C9.33579 7 9 7.33579 9 7.75C9 8.16421 9.33579 8.5 9.75 8.5Z" fill="black"/>
<path d="M6.5 10.75H9.5" stroke="black" stroke-width="1.2" stroke-linecap="round"/>
</svg>
